<svg width="65" height="65" viewBox="0 0 65 65" fill="none" xmlns="http://www.w3.org/2000/svg">
<path d="M33 58C46.8071 58 58 46.8071 58 33C58 19.1929 46.8071 8 33 8C19.1929 8 8 19.1929 8 33C8 46.8071 19.1929 58 33 58Z" stroke="black" stroke-width="1.7" stroke-miterlimit="10"/>
<path d="M31.4946 34.6809L39.9173 20.2184" stroke="black" stroke-width="1.7" stroke-miterlimit="10" stroke-linecap="round"/>
<path d="M32.5659 35.0226C33.6932 35.0226 34.6069 34.1088 34.6069 32.9816C34.6069 31.8543 33.6932 30.9406 32.5659 30.9406C31.4387 30.9406 30.5249 31.8543 30.5249 32.9816C30.5249 34.1088 31.4387 35.0226 32.5659 35.0226Z" fill="white" stroke="black" stroke-width="1.7" stroke-miterlimit="10"/>
<path d="M33 14.3909C36.3709 14.3909 39.5201 15.2867 42.2538 16.8475" stroke="black" stroke-width="1.57" stroke-miterlimit="10" stroke-linecap="round"/>
</svg>
