<svg width="65" height="65" viewBox="0 0 65 65" fill="none" xmlns="http://www.w3.org/2000/svg">
<path d="M25.7715 55.3107L17.2015 57.2907C6.8815 59.6707 -0.298504 47.2507 6.9315 39.5007L12.8015 33.2007" stroke="black" stroke-width="2" stroke-miterlimit="10"/>
<path d="M52.5115 33.2407L58.5215 39.9807C65.4915 47.8007 58.3015 59.9507 48.0915 57.5907L39.0715 55.5107" stroke="black" stroke-width="2" stroke-miterlimit="10"/>
<path d="M19.2715 21.8907L22.1115 12.6007C25.1715 2.58068 39.3015 2.43068 42.5815 12.3707L45.6615 21.6907" stroke="black" stroke-width="2" stroke-miterlimit="10"/>
<path d="M17.1915 34.7607C20.9194 34.7607 23.9415 31.7386 23.9415 28.0107C23.9415 24.2828 20.9194 21.2607 17.1915 21.2607C13.4636 21.2607 10.4415 24.2828 10.4415 28.0107C10.4415 31.7386 13.4636 34.7607 17.1915 34.7607Z" stroke="black" stroke-width="2" stroke-linecap="round"/>
<path d="M48.1014 34.7607C51.8294 34.7607 54.8514 31.7386 54.8514 28.0107C54.8514 24.2828 51.8294 21.2607 48.1014 21.2607C44.3735 21.2607 41.3514 24.2828 41.3514 28.0107C41.3514 31.7386 44.3735 34.7607 48.1014 34.7607Z" stroke="black" stroke-width="2" stroke-linecap="round"/>
<path d="M32.6515 61.1606C36.3794 61.1606 39.4015 58.1386 39.4015 54.4106C39.4015 50.6827 36.3794 47.6606 32.6515 47.6606C28.9236 47.6606 25.9015 50.6827 25.9015 54.4106C25.9015 58.1386 28.9236 61.1606 32.6515 61.1606Z" stroke="black" stroke-width="2" stroke-linecap="round"/>
</svg>
