<svg width="65" height="65" viewBox="0 0 65 65" fill="none" xmlns="http://www.w3.org/2000/svg">
<path d="M9.65593 43.1478C10.2491 43.1478 10.7299 42.667 10.7299 42.0738C10.7299 41.4807 10.2491 40.9998 9.65593 40.9998C9.06278 40.9998 8.58194 41.4807 8.58194 42.0738C8.58194 42.667 9.06278 43.1478 9.65593 43.1478Z" fill="black" stroke="black"/>
<path d="M22.2901 43.1478C22.8833 43.1478 23.3641 42.667 23.3641 42.0738C23.3641 41.4807 22.8833 40.9998 22.2901 40.9998C21.697 40.9998 21.2161 41.4807 21.2161 42.0738C21.2161 42.667 21.697 43.1478 22.2901 43.1478Z" fill="black" stroke="black"/>
<path d="M34.9243 43.1478C35.5175 43.1478 35.9983 42.667 35.9983 42.0738C35.9983 41.4807 35.5175 40.9998 34.9243 40.9998C34.3312 40.9998 33.8503 41.4807 33.8503 42.0738C33.8503 42.667 34.3312 43.1478 34.9243 43.1478Z" fill="black" stroke="black"/>
<path d="M47.5585 43.1478C48.1516 43.1478 48.6325 42.667 48.6325 42.0738C48.6325 41.4807 48.1516 40.9998 47.5585 40.9998C46.9653 40.9998 46.4845 41.4807 46.4845 42.0738C46.4845 42.667 46.9653 43.1478 47.5585 43.1478Z" fill="black" stroke="black"/>
<path d="M15.9029 35.1288C16.496 35.1288 16.9769 34.648 16.9769 34.0548C16.9769 33.4617 16.496 32.9808 15.9029 32.9808C15.3097 32.9808 14.8289 33.4617 14.8289 34.0548C14.8289 34.648 15.3097 35.1288 15.9029 35.1288Z" fill="black" stroke="black"/>
<path d="M28.4614 35.1288C29.0545 35.1288 29.5354 34.648 29.5354 34.0548C29.5354 33.4617 29.0545 32.9808 28.4614 32.9808C27.8682 32.9808 27.3874 33.4617 27.3874 34.0548C27.3874 34.648 27.8682 35.1288 28.4614 35.1288Z" fill="black" stroke="black"/>
<path d="M41.018 35.1288C41.6112 35.1288 42.092 34.648 42.092 34.0548C42.092 33.4617 41.6112 32.9808 41.018 32.9808C40.4249 32.9808 39.944 33.4617 39.944 34.0548C39.944 34.648 40.4249 35.1288 41.018 35.1288Z" fill="black" stroke="black"/>
<path d="M34.9597 27.5226C35.5529 27.5226 36.0337 27.0417 36.0337 26.4486C36.0337 25.8554 35.5529 25.3746 34.9597 25.3746C34.3666 25.3746 33.8857 25.8554 33.8857 26.4486C33.8857 27.0417 34.3666 27.5226 34.9597 27.5226Z" fill="black" stroke="black"/>
<path d="M22.4914 27.5226C23.0846 27.5226 23.5654 27.0417 23.5654 26.4486C23.5654 25.8554 23.0846 25.3746 22.4914 25.3746C21.8983 25.3746 21.4174 25.8554 21.4174 26.4486C21.4174 27.0417 21.8983 27.5226 22.4914 27.5226Z" fill="black" stroke="black"/>
<path d="M55.9049 42.5985C55.9049 52.9126 46.6081 59 41.9156 59C35.9164 59 36.6883 48.7236 32.6482 48.7236C29.0256 48.7236 29.678 58.8217 23.2634 58.8217C18.5709 58.8217 19.3429 53.2965 15.6007 50.8695C8.7015 46.391 1.78555 51.8722 1.78555 42.5985C1.78555 29.0834 13.9016 18.1252 28.8452 18.1252C43.7888 18.1252 55.9049 29.0813 55.9049 42.5985Z" stroke="black" stroke-width="2" stroke-linecap="round"/>
<path d="M11.8968 15.1003C21.092 10.4245 33.5248 9.34682 44.0533 13.9739C53.8144 18.2642 60.0857 26.3166 62.5419 35.2649" stroke="black" stroke-width="2" stroke-linecap="round"/>
</svg>
