<svg width="65" height="65" viewBox="0 0 65 65" fill="none" xmlns="http://www.w3.org/2000/svg">
<path d="M13.2 13.68C14.18 12.62 15.58 11.96 17.12 11.96H49.19C52.14 11.96 54.55 14.37 54.55 17.32V49.39C54.55 50.86 53.95 52.2 52.98 53.17" stroke="black" stroke-width="2" stroke-linecap="round"/>
<path d="M21.16 5.72C22.14 4.66 23.54 4 25.08 4H57.15C60.1 4 62.51 6.41 62.51 9.36V41.43C62.51 42.9 61.91 44.24 60.94 45.21" stroke="black" stroke-width="2" stroke-linecap="round"/>
<path d="M41.42 19.73H9.36C6.39975 19.73 4 22.1297 4 25.09V57.15C4 60.1102 6.39975 62.51 9.36 62.51H41.42C44.3802 62.51 46.78 60.1102 46.78 57.15V25.09C46.78 22.1297 44.3802 19.73 41.42 19.73Z" stroke="black" stroke-width="2" stroke-linecap="round"/>
</svg>
