<svg width="65" height="65" viewBox="0 0 65 65" fill="none" xmlns="http://www.w3.org/2000/svg">
<path d="M62.0992 40.4563C54.6688 40.4563 54.6688 22.2125 47.247 22.2125C39.8252 22.2125 39.8166 40.4563 32.3948 40.4563C24.973 40.4563 24.9644 22.2125 17.5426 22.2125C10.1208 22.2125 10.1122 40.4563 2.68176 40.4563" stroke="black" stroke-width="2" stroke-linecap="round"/>
<path d="M32.3948 9V57" stroke="black" stroke-width="2" stroke-miterlimit="10" stroke-linecap="round"/>
<path d="M17.6635 40.9482C18.2926 40.9482 18.8026 40.4382 18.8026 39.8091C18.8026 39.1799 18.2926 38.6699 17.6635 38.6699C17.0343 38.6699 16.5243 39.1799 16.5243 39.8091C16.5243 40.4382 17.0343 40.9482 17.6635 40.9482Z" fill="black" stroke="black" stroke-width="0.5" stroke-miterlimit="10"/>
<path d="M17.6635 12.7799C18.2926 12.7799 18.8026 12.2699 18.8026 11.6407C18.8026 11.0116 18.2926 10.5016 17.6635 10.5016C17.0343 10.5016 16.5243 11.0116 16.5243 11.6407C16.5243 12.2699 17.0343 12.7799 17.6635 12.7799Z" fill="black" stroke="black" stroke-width="0.5" stroke-miterlimit="10"/>
<path d="M3.13916 26.8641C3.7683 26.8641 4.27832 26.3541 4.27832 25.7249C4.27832 25.0958 3.7683 24.5858 3.13916 24.5858C2.51002 24.5858 2 25.0958 2 25.7249C2 26.3541 2.51002 26.8641 3.13916 26.8641Z" fill="black" stroke="black" stroke-width="0.5" stroke-miterlimit="10"/>
<path d="M3.13916 55.0323C3.7683 55.0323 4.27832 54.5223 4.27832 53.8932C4.27832 53.264 3.7683 52.754 3.13916 52.754C2.51002 52.754 2 53.264 2 53.8932C2 54.5223 2.51002 55.0323 3.13916 55.0323Z" fill="black" stroke="black" stroke-width="0.5" stroke-miterlimit="10"/>
<path d="M3.13916 12.7799C3.7683 12.7799 4.27832 12.2699 4.27832 11.6407C4.27832 11.0116 3.7683 10.5016 3.13916 10.5016C2.51002 10.5016 2 11.0116 2 11.6407C2 12.2699 2.51002 12.7799 3.13916 12.7799Z" fill="black" stroke="black" stroke-width="0.5" stroke-miterlimit="10"/>
<path d="M17.6635 55.0323C18.2926 55.0323 18.8026 54.5223 18.8026 53.8932C18.8026 53.264 18.2926 52.754 17.6635 52.754C17.0343 52.754 16.5243 53.264 16.5243 53.8932C16.5243 54.5223 17.0343 55.0323 17.6635 55.0323Z" fill="black" stroke="black" stroke-width="0.5" stroke-miterlimit="10"/>
</svg>
